<?xml version="1.0" encoding="UTF-8" standalone="no"?>
<!-- Created with Inkscape (http://www.inkscape.org/) -->

<svg
   xmlns:dc="http://purl.org/dc/elements/1.1/"
   xmlns:cc="http://creativecommons.org/ns#"
   xmlns:rdf="http://www.w3.org/1999/02/22-rdf-syntax-ns#"
   xmlns:svg="http://www.w3.org/2000/svg"
   xmlns="http://www.w3.org/2000/svg"
   xmlns:sodipodi="http://sodipodi.sourceforge.net/DTD/sodipodi-0.dtd"
   xmlns:inkscape="http://www.inkscape.org/namespaces/inkscape"
   width="7.5000095cm"
   height="16.000019cm"
   viewBox="0 0 75.000095 160.00018"
   version="1.1"
   id="svg8"
   inkscape:version="0.92.4 (5da689c313, 2019-01-14)"
   sodipodi:docname="sochord.svg">
  <defs
     id="defs2" />
  <sodipodi:namedview
     id="base"
     pagecolor="#ffffff"
     bordercolor="#666666"
     borderopacity="1.0"
     inkscape:pageopacity="0.0"
     inkscape:pageshadow="2"
     inkscape:zoom="0.98994949"
     inkscape:cx="-152.01017"
     inkscape:cy="428.39963"
     inkscape:document-units="mm"
     inkscape:current-layer="layer1"
     showgrid="false"
     units="cm"
     inkscape:window-width="2556"
     inkscape:window-height="1401"
     inkscape:window-x="0"
     inkscape:window-y="18"
     inkscape:window-maximized="0"
     fit-margin-top="0"
     fit-margin-left="0"
     fit-margin-right="0"
     fit-margin-bottom="0">
    <inkscape:grid
       type="xygrid"
       id="grid44"
       originx="-9.9999059"
       originy="0.00019779281" />
  </sodipodi:namedview>
  <metadata
     id="metadata5">
    <rdf:RDF>
      <cc:Work
         rdf:about="">
        <dc:format>image/svg+xml</dc:format>
        <dc:type
           rdf:resource="http://purl.org/dc/dcmitype/StillImage" />
        <dc:title></dc:title>
      </cc:Work>
    </rdf:RDF>
  </metadata>
  <g
     inkscape:label="Circles for now"
     inkscape:groupmode="layer"
     id="layer1"
     transform="translate(-9.9999063,-137.00002)"
     style="display:inline">
    <circle
       style="fill:#4dd0e1;fill-opacity:1;stroke-width:0.21773082"
       id="path10"
       cx="47.5"
       cy="259.5"
       r="37.5" />
    <circle
       style="fill:#cddc39;fill-opacity:1;stroke-width:0.21773084"
       id="path10-6"
       cx="47.5"
       cy="174.50002"
       r="37.5" />
  </g>
  <g
     inkscape:groupmode="layer"
     id="layer3"
     inkscape:label="Merge"
     style="display:inline"
     transform="translate(-9.9999063,-39.999995)">
    <path
       style="display:inline;fill:#00bcd4;fill-opacity:1;stroke-width:1.74374127"
       d="m 260.86719,176.93555 a 205.87697,205.87697 0 0 1 -153.25781,68.73437 205.87697,205.87697 0 0 1 -58.332036,-8.55469 141.73228,141.73228 0 0 0 -11.482422,55.79883 141.73228,141.73228 0 0 0 2.855469,27.91602 l -0.0059,0.004 a 141.73228,141.73228 0 0 0 0.01367,0.0547 141.73228,141.73228 0 0 0 2.974609,11.95703 300.32624,300.32624 0 0 0 0.08594,0.0156 141.73228,141.73228 0 0 0 20.132812,41.64844 h -0.04102 L 205.39062,569.63672 h 0.4668 a 97.348977,97.096445 0 0 1 25.66016,65.54101 97.348977,97.096445 0 0 1 -97.34961,97.09571 97.348977,97.096445 0 0 1 -51.404298,-14.78125 141.73228,141.73228 0 0 0 96.763668,38.41406 141.73228,141.73228 0 0 0 141.73243,-141.73242 141.73228,141.73228 0 0 0 -27.31836,-83.39258 L 152.79297,336.25 a 300.32624,300.32624 0 0 0 163.39648,-80.82812 141.73228,141.73228 0 0 0 -55.32226,-78.48633 z"
       transform="scale(0.26458333)"
       id="path10-6-3-6-2"
       inkscape:connector-curvature="0" />
  </g>
</svg>
